# xmcd CD database file
#
# Track frame offsets:
#	150
#	17200
#	35513
#	48908
#	62850
#	84738
#	99700
#	115088
#	129150
#	145138
#
# Disc length: 2160 seconds
#
# Revision: 0
# Processed by: cddbd v1.5.2PL0 Copyright (c) Steve Scherf et al.
# Submitted via: CDex 1.70beta2
#
DISCID=84086e0a
DTITLE=Lutz Scheufler - Ist doch alles gut, oder?
DYEAR=1991
DGENRE=Blues
TTITLE0=Nimm doch deinen Walkman endlich ab!
TTITLE1=Glück auf!
TTITLE2=Sonntagmorgen
TTITLE3=Gefangen wie ein Vogel
TTITLE4=Wenn Mütter töten, stirbt die Welt
TTITLE5=Freiheit wird dann sein
TTITLE6=Mensch, ärgere dich nicht
TTITLE7=Ein Blinder stand dort am Weg
TTITLE8=Alle Menschen sind doch Fremde
TTITLE9=Frieden wird werden
EXTD=YEAR: 1991
EXTT0=
EXTT1=
EXTT2=
EXTT3=
EXTT4=
EXTT5=
EXTT6=
EXTT7=
EXTT8=
EXTT9=
PLAYORDER=
